<svg xmlns="http://www.w3.org/2000/svg" viewBox="0 0 1024 1024">
  <defs>
    <linearGradient id="g" x1="0" y1="1" x2="0" y2="0">
      <stop offset="0%" stop-color="#ff5b37"/>
      <stop offset="100%" stop-color="#fb2b69"/>
    </linearGradient>
  </defs>
  <!-- Circle background with gradient -->
  <circle cx="512" cy="512" r="512" fill="url(#g)"/>
  <!-- Quote mark shapes -->
  <path fill="#fff" d="M283.8 322.08v197.12h84.48c0 31.57-5.97 58.24-17.92 80
    -11.95 21.76-34.14 38.19-66.56 49.28v84.48c26.45-3.41 50.99-11.3 73.6-23.68
    22.61-12.35 42.02-27.93 58.22-46.75 16.21-18.77 28.79-40.53 37.74-65.28
    8.96-24.75 13.01-51.2 12.16-79.36V322.08h-181.7zm272.64 0v197.12h84.48
    c0 31.57-5.97 58.24-17.92 80-11.95 21.76-34.14 38.19-66.56 49.28v84.48
    c26.45-3.41 50.99-11.3 73.6-23.68 22.61-12.35 42.02-27.93 58.22-46.75
    16.21-18.77 28.79-40.53 37.74-65.28 8.96-24.75 13.01-51.2 12.16-79.36V322.08h-181.7z"/>
</svg>