<svg xmlns="http://www.w3.org/2000/svg" viewBox="0 0 1200 1200" preserveAspectRatio="xMidYMid meet">
  <defs>
    <!-- Vertical gradient used for the round badge -->
    <linearGradient id="g" x1="0" y1="1" x2="0" y2="0">
      <stop offset="0%" stop-color="#ff5b37"/>
      <stop offset="100%" stop-color="#fb2b69"/>
    </linearGradient>
  </defs>

  <!-- Left quote mark block (orange) -->
  <path fill="#ff5b37" d="M327.111 588.573V403.057h-79.507c0-29.715 5.622-54.811 16.865-75.29 11.244-20.479 32.124-35.939 62.642-46.379v-79.507c-24.896 3.212-47.985 10.64-69.267 22.285-21.282 11.645-39.552 26.302-54.811 43.97-15.259 17.668-27.105 38.147-35.537 61.437-8.433 23.29-12.248 48.186-11.445 74.688v184.311h171.06zm256.59 0V403.057h-79.507c0-29.715 5.621-54.811 16.865-75.29 11.244-20.479 32.124-35.939 62.642-46.379v-79.507c-24.896 3.212-47.985 10.64-69.267 22.285-21.282 11.645-39.552 26.302-54.811 43.97-15.259 17.668-27.104 38.147-35.537 61.437-8.432 23.29-12.247 48.186-11.444 74.688v184.311h171.06z"/>

  <!-- Right quote mark block (magenta) — removed blend mode for compatibility -->
  <path fill="#fa2b69" d="M615.051 610.881v185.516h79.507c0 29.715-5.621 54.812-16.864 75.291-11.244 20.48-32.124 35.939-62.643 46.379v79.507c24.896-3.212 47.985-10.64 69.267-22.285 21.282-11.645 39.553-26.302 54.812-43.97 15.259-17.668 27.104-38.147 35.537-61.437 8.432-23.29 12.247-48.186 11.444-74.688V610.881h-171.06zm256.59 0v185.516h79.507c0 29.715-5.621 54.812-16.865 75.291-11.243 20.48-32.124 35.939-62.642 46.379v79.507c24.896-3.212 47.985-10.64 69.267-22.285 21.282-11.645 39.552-26.302 54.811-43.97 15.259-17.668 27.105-38.147 35.537-61.437 8.433-23.29 12.248-48.186 11.445-74.688V610.881h-171.06z"/>

  <!-- Gradient round badge behind white quotes -->
  <circle cx="828.5" cy="395.5" r="193.5" fill="url(#g)"/>

  <!-- White quote marks inside the round badge -->
  <path fill="#fff" d="M742.256 323.724v74.497h31.928c0 11.931-2.256 22.011-6.772 30.235-4.516 8.224-12.902 14.433-25.155 18.624v31.927c10.0-1.288 19.275-4.27 27.82-8.949 8.545-4.667 15.881-10.555 22.003-17.668 6.126-7.093 10.88-15.317 14.262-24.671 3.386-9.353 4.917-19.35 4.596-29.992v-74.003h-68.682zm103.039 0v74.497h31.928c0 11.931-2.256 22.011-6.772 30.235-4.516 8.224-12.902 14.433-25.155 18.624v31.927c10.0-1.288 19.274-4.27 27.82-8.949 8.544-4.667 15.88-10.555 22.003-17.668 6.126-7.093 10.88-15.317 14.262-24.671 3.386-9.353 4.917-19.35 4.596-29.992v-74.003h-68.682z"/>
</svg>